<svg width="164" height="48" viewBox="0 0 164 48" fill="none" xmlns="http://www.w3.org/2000/svg">
<path d="M14.767 45.4495C14.9466 45.4981 15.0669 45.5796 15.1751 45.6789C15.273 45.7688 15.3655 45.8647 15.4886 45.9857C15.5251 45.5128 15.3095 45.2075 14.9978 44.9459C14.6937 44.6906 14.3222 44.5499 13.9766 44.3525C14.3691 44.119 14.7167 44.2329 15.4995 44.841C15.512 44.5747 15.4283 44.3781 15.174 44.1433C14.6042 43.6174 13.9217 43.4906 13.1786 43.6042C12.8136 43.6599 12.465 43.7753 12.1383 43.9467C11.9851 44.027 11.9008 44.0274 11.8376 43.8373C11.6349 43.2269 11.4627 42.6111 11.3835 41.9706C11.2852 41.1751 11.5196 40.4683 11.9379 39.8065C12.4561 38.9869 13.1289 38.2927 13.7967 37.6038C15.669 35.6723 16.6551 33.3062 17.2253 30.7358C17.4222 29.8481 17.2627 28.9469 17.1673 28.0546C17.1276 27.6826 17.0751 27.312 17.0439 26.9393C17.5851 28.4159 18.0224 29.8948 17.44 31.4784C17.1748 32.1995 16.9816 32.947 16.7566 33.6829C16.7386 33.742 16.7277 33.8033 16.7044 33.9019C17.4031 33.6666 18.0904 33.5039 18.6715 33.0842C19.6296 32.3922 20.5953 31.7128 21.6735 31.1792C20.487 31.0666 19.3094 30.8264 18.1162 31.1114C18.5605 30.8427 19.0489 30.7471 19.5569 30.7649C20.7372 30.8062 21.9127 30.9375 23.095 30.95C25.3592 30.9739 27.4064 30.2967 29.2765 29.0485C29.7146 28.7561 30.0647 28.3699 30.3514 27.8913C30.4408 28.0293 30.3805 28.1371 30.3451 28.2387C30.1844 28.7008 29.8697 29.0594 29.545 29.4099C29.2602 29.7174 29.0301 30.0527 28.9618 30.4788C28.9186 30.7489 28.9555 31.0086 29.0518 31.261C29.0705 31.31 29.1019 31.3782 29.1416 31.3901C29.2249 31.415 29.2344 31.3219 29.2621 31.2712C29.4808 30.8718 29.7726 30.5378 30.1852 30.2341C29.6536 31.4248 30.1056 32.3073 30.9466 33.091C30.849 32.0401 31.2084 31.1555 31.8685 30.36C31.6453 31.5273 32.0753 32.3781 33.1216 33.0175C32.8474 32.1447 32.9851 31.3773 33.3786 30.5622C33.5725 31.2186 33.8827 31.7283 34.3972 32.1764C34.3766 31.975 34.3578 31.8275 34.3471 31.6794C34.2988 31.0128 34.485 30.4303 34.9717 29.9571C35.1235 29.8096 35.2187 29.7445 35.368 30.0045C35.7747 30.7124 36.3816 31.2511 36.9923 31.7805C38.0583 32.7047 39.1883 33.5533 40.2128 34.5271C40.8861 35.1671 41.3618 35.9014 41.4559 36.8472C41.4724 37.0137 41.5363 37.1686 41.6289 37.3067C41.8799 37.6813 42.2666 37.6714 42.5 37.2903C42.5463 37.2146 42.568 37.1192 42.6683 37.0663C42.8083 37.2773 42.8232 37.5315 42.9215 37.7525C43.0594 38.0625 43.1294 38.454 43.5877 38.4496C44.0159 38.4454 44.4956 38.0335 44.6056 37.6072C44.7008 37.2384 44.6073 36.9159 44.3659 36.6356C44.2537 36.5054 44.117 36.3963 43.9939 36.28C44.2541 36.2389 44.5905 36.3837 44.7743 36.6383C44.9896 36.9365 45.0115 37.2599 44.8808 37.6032C44.8446 37.6983 44.6891 37.7872 44.7785 37.88C44.8571 37.9617 45.0058 37.8984 45.1214 37.8706C45.735 37.7232 46.0786 37.3659 46.083 36.8659C46.087 36.4207 45.839 36.1287 45.4759 35.9238C45.2886 35.8181 45.0829 35.7449 44.8383 35.6361C45.2407 35.5627 45.5786 35.5737 45.8912 35.7656C46.3233 36.0309 46.4463 36.4144 46.3316 37.0418C46.3109 37.1549 46.169 37.2864 46.2982 37.39C46.6283 37.6548 46.8798 37.6827 47.12 37.5153C47.4702 37.2713 47.5917 36.8052 47.4049 36.4144C47.37 36.3412 47.3272 36.2719 47.2693 36.1669C47.5009 36.226 47.6663 36.3465 47.8281 36.4626C47.9667 36.5622 48.0223 36.5152 48.0521 36.3767C48.1124 36.0966 48.0242 35.848 47.8649 35.6258C47.5962 35.2507 47.2032 35.058 46.7777 34.92C46.6403 34.8754 46.5019 34.8339 46.3711 34.7705C47.0245 34.679 47.593 34.8414 48.0591 35.3268C47.8315 34.7759 47.4273 34.4335 46.845 34.3154C46.0354 34.1512 45.295 34.3907 44.6072 34.7812C44.328 34.9398 44.1466 34.9028 43.9278 34.7193C42.8065 33.7787 41.8678 32.7014 41.2378 31.3601C40.7859 30.3979 40.3127 29.4466 39.9573 28.4433C39.8961 28.2704 39.8156 28.2251 39.6368 28.2551C38.3262 28.4747 37.015 28.6906 35.7019 28.8947C35.2315 28.9678 34.7558 29.0075 34.2821 29.0583C33.329 29.1605 32.6058 28.7113 31.9587 28.083C31.8888 28.0151 31.8211 27.9449 31.7369 27.8909C31.9524 28.4459 32.3261 28.8514 32.8733 29.099C32.2268 28.9592 31.6955 28.6407 31.2817 28.0719C31.0368 28.5612 30.6313 28.8467 30.182 29.0868C30.3637 28.8695 30.55 28.6585 30.7114 28.4266C30.9633 28.0648 31.0204 27.7348 30.7567 27.3218C30.3202 26.638 29.95 25.9117 29.5946 25.174C29.8495 25.5026 30.1182 25.8217 30.3568 26.1618C30.9755 27.044 31.738 27.7377 32.7484 28.1576C33.4741 28.4592 34.213 28.4995 34.9832 28.4562C37.3711 28.3219 39.7485 28.059 42.1339 27.8958C42.3898 27.8783 42.6466 27.8615 42.9018 27.9009C43.1606 27.9408 43.3209 28.0788 43.3193 28.3576C43.3151 29.1025 43.681 29.5618 44.3926 29.7576C44.5123 29.7906 44.6104 29.812 44.5344 29.9938C44.2772 30.6094 44.4632 31.0265 45.0905 31.2746C45.2495 31.3376 45.4189 31.3745 45.6006 31.4284C45.455 31.6305 45.2261 31.6714 45.0131 31.8241C45.6659 32.0322 46.2508 31.9214 46.7704 31.5862C47.9582 30.82 47.9354 29.6558 47.7096 28.4293C48.3463 28.9353 48.1249 30.3722 47.2223 31.7704C47.238 31.8029 47.2646 31.7962 47.2829 31.7796C48.1035 31.0354 48.5589 30.1374 48.4409 29.0027C48.3392 28.0244 47.6255 27.2184 46.6683 26.9992C46.5144 26.9639 46.3747 26.9053 46.2377 26.8269C45.6491 26.4903 45.0525 26.1675 44.4666 25.8264C43.5225 25.2767 42.492 25.2202 41.4346 25.2335C40.2646 25.2481 39.089 25.3238 37.9291 25.0748C37.0555 24.8873 36.5072 24.3359 36.1318 23.464C36.3379 23.6544 36.48 23.7975 36.6343 23.9262C37.253 24.442 37.9522 24.7798 38.7571 24.8929C38.9378 24.9183 38.9935 24.8725 39.0154 24.6928C39.1485 23.5992 38.9335 22.6183 38.0908 21.8093C39.0451 22.1001 39.416 23.0724 39.3183 24.9503C40.1468 24.4884 40.37 22.6984 39.7772 21.2691C40.0935 21.3924 40.1702 21.4702 40.7591 22.2732C40.886 21.2939 40.7024 20.4208 40.1301 19.6078C40.6656 19.8283 40.8313 20.0253 41.4408 21.1505C41.555 20.2755 41.4628 19.4826 41.0214 18.7445C40.5837 18.0128 39.9131 17.5446 39.2029 17.1064C40.0517 17.0653 40.8598 17.1434 41.5191 17.7819C41.4581 17.2402 41.2236 16.7856 40.9216 16.3614C40.7027 16.0539 40.4357 15.7892 40.1514 15.5421C39.4611 14.9422 38.7615 14.354 37.9586 13.8316C38.9955 14.0289 40.1939 14.2648 40.7772 15.4845C40.7842 15.0881 40.6885 14.7592 40.5526 14.4413C40.2692 13.7782 39.8092 13.2482 39.2748 12.777C38.876 12.4253 38.4819 12.0695 38.137 11.6626C37.7311 11.1837 37.4952 10.637 37.5012 10.0057C37.5036 9.76297 37.4192 9.69254 37.1847 9.70257C36.7732 9.72016 36.3602 9.69851 35.9485 9.71303C35.5848 9.72587 35.2934 9.60853 35.044 9.34048C34.6994 8.97001 34.3995 8.56783 34.118 8.14907C33.7298 7.5716 33.7228 6.96684 33.9705 6.34024C34.114 5.97698 34.3379 5.66848 34.6245 5.38181C34.6745 5.47502 34.6131 5.53037 34.5911 5.58936C34.5112 5.80379 34.4199 6.01418 34.3457 6.2305C34.1071 6.92614 34.2393 7.54892 34.6632 8.15017C35.2147 8.93242 35.853 9.51848 36.8852 9.53015C37.2365 9.53412 37.5953 9.60574 37.9354 9.72428C38.1188 9.78819 38.2957 9.86983 38.4345 10.0063C38.5873 10.1567 38.7425 10.155 38.8538 9.99262C39.0415 9.71881 39.2068 9.60985 39.4069 10.0744C39.5708 9.55641 39.5717 9.12847 39.4678 8.61678C39.6327 8.75419 39.7418 8.84507 39.8822 8.96203C39.9468 8.72304 39.8764 8.59441 39.8023 8.47457C39.682 8.28001 39.5486 8.09353 39.4213 7.90327C39.3143 7.74331 39.1469 7.60879 39.293 7.37227C39.3447 7.28864 39.2753 7.15742 39.2251 7.05909C39.0744 6.76379 38.8697 6.5105 38.5844 6.25495C38.6505 6.52711 38.6999 6.75391 38.7619 6.97722C38.8054 7.13402 38.7581 7.23531 38.6243 7.32428C38.3697 7.4936 38.1022 7.62737 37.8019 7.69277C37.0238 7.86222 36.4526 7.55353 36.1746 6.80314C36.0755 6.53575 36.0191 6.25759 36.0099 5.97049C35.9799 5.03129 36.6306 4.32181 37.572 4.25633C37.795 4.24082 37.9489 4.31887 38.0383 4.51465C38.1542 4.76845 38.2585 5.02757 38.3813 5.31628C38.5649 4.89362 38.4935 4.50616 38.3652 4.12142C38.2536 3.78703 38.2544 3.77083 38.5277 3.4985C38.6898 3.69208 38.6446 3.97249 38.7997 4.17283C39.1181 3.73096 39.0427 3.01482 38.5943 2.65681C38.2586 2.38869 38.0844 2.0909 38.0763 1.65907C38.0702 1.3385 37.9213 1.23403 37.5543 1.17104C36.518 0.993197 35.5079 1.09981 34.5247 1.46055C34.3143 1.53775 34.1268 1.54331 33.9187 1.45365C33.1283 1.11312 32.3483 1.13342 31.5959 1.56758C31.423 1.66736 31.3219 1.62279 31.2032 1.48126C30.3308 0.441051 29.2283 0.113724 27.9213 0.443669C27.3608 0.585155 26.7916 0.666751 26.2113 0.708616C26.86 1.08454 27.5919 1.03518 28.2969 1.12153C28.301 1.22558 28.2157 1.21094 28.1659 1.22837C27.5851 1.43174 26.9829 1.47092 26.3752 1.44035C25.2845 1.38548 24.3533 1.79626 23.4901 2.41133C23.4428 2.445 23.3751 2.47177 23.3753 2.58381C24.1167 2.44094 24.824 2.14431 25.5878 2.17415C25.1868 2.30882 24.8014 2.47202 24.4342 2.67617C23.7216 3.07246 23.2201 3.66921 22.84 4.37692C22.751 4.54262 22.6339 4.67097 22.4811 4.7824C21.8701 5.228 21.3046 5.71878 20.9562 6.41206C20.7243 6.87358 20.6589 7.34368 20.7947 7.7904C21.0739 6.81683 21.7832 6.33912 22.6412 6.01648C22.4667 6.21244 22.2881 6.40492 22.1185 6.60504C21.6537 7.15346 21.2986 7.77505 20.9424 8.39479C20.6376 8.92502 20.2904 9.4143 19.7522 9.73599C19.7215 9.7544 19.6863 9.77236 19.707 9.84825C20.4598 9.86928 21.0861 9.55488 21.6732 9.08443C21.4333 9.88329 21.3716 10.7255 20.9718 11.4674C20.7744 11.8338 20.4581 12.0831 20.0872 12.2641C19.9743 12.3192 19.8603 12.3721 19.7404 12.429C20.061 12.6725 20.3009 12.6773 21.1906 12.481C20.5063 13.0494 20.0256 13.7028 20.2683 14.673C20.5249 14.0396 20.977 13.6067 21.5977 13.3251C20.7187 14.4319 20.3833 15.6098 21.0868 16.9359C21.0962 16.0709 21.617 15.5231 22.242 15.0272C21.4361 16.316 21.3019 17.6438 21.9798 19.0821C22.1059 18.391 22.3521 17.7949 22.7298 17.2538C22.6275 17.9658 22.5553 18.6853 22.1305 19.3042C21.1347 20.7551 19.9312 21.9855 18.3137 22.7315C17.3735 23.165 16.3627 23.4229 15.3847 23.7627C14.2074 24.1717 13.0289 24.5794 11.9188 25.1546C9.79564 26.2544 8.42808 27.9459 7.87335 30.2896C7.66244 31.1807 7.5346 32.0904 7.2627 32.9674C7.07667 33.5674 6.8307 34.1383 6.42973 34.6281C5.06367 36.2969 2.71847 36.0934 1.62434 34.1965C0.891239 32.9255 0.846241 31.5669 1.21934 30.1768C1.36694 29.6268 1.57635 29.0992 1.81799 28.5833C1.88454 28.4412 1.93829 28.397 2.07087 28.5133C3.01872 29.3448 4.39511 28.7669 4.83142 27.6664C5.00668 27.2243 5.11527 26.7647 5.06733 26.2964C4.92647 24.9207 4.84312 23.538 4.60601 22.1731C4.57349 21.986 4.51777 21.8029 4.43862 21.6098C4.266 22.4529 3.59364 22.8402 2.9889 23.2867C2.33957 23.7662 1.69351 24.25 1.19655 24.8982C0.85663 25.3416 0.600133 25.8244 0.562991 26.3947C0.526552 26.9543 0.735943 27.4224 1.15643 27.782C1.32879 27.9294 1.32411 28.0286 1.20536 28.2064C0.378152 29.4453 -0.0475495 30.8076 0.00422235 32.3041C0.0849671 34.6377 1.57723 36.4781 3.74757 36.9334C5.38625 37.2773 6.74065 36.6954 7.63692 35.2766C8.39427 34.0778 8.72308 32.7439 8.9013 31.3598C8.94205 31.0433 8.98456 30.7271 9.08383 30.4145C9.07808 30.5435 9.07394 30.6726 9.0663 30.8014C8.99801 31.9537 9.20128 33.0853 9.32864 34.2224C9.42166 35.0528 9.47089 35.8814 9.36935 36.7161C9.26844 37.5456 8.95736 38.2686 8.36625 38.8657C8.21159 39.0219 8.06834 39.1899 7.9088 39.3408C7.54736 39.6828 7.46301 40.0762 7.63942 40.5415C7.88302 41.1839 8.12273 41.8282 8.34615 42.4779C8.74839 43.6477 9.13408 44.8232 9.53362 45.9939C9.66646 46.3832 9.77984 46.7852 10.0308 47.1209C10.2537 47.4189 10.491 47.7125 10.9347 47.5924C11.4188 47.4615 11.83 47.2404 11.9332 46.6925C12.015 46.2585 11.8059 45.8303 11.4157 45.5949C11.3541 45.5577 11.2863 45.5306 11.2079 45.4922C11.4824 45.3251 11.7627 45.3789 11.9892 45.6485C12.3447 46.0714 12.305 46.5425 12.1201 47.0213C12.091 47.0968 12.0466 47.1665 12.0089 47.2396C12.5975 47.4839 13.1446 47.3134 13.3496 46.8289C13.6309 46.1643 13.3703 45.7056 12.4796 45.2977C12.8983 45.0246 13.534 45.2727 13.6808 45.7677C13.7149 45.8828 13.7476 46.0069 13.7092 46.12C13.5413 46.6151 13.9174 46.8721 14.1651 47.1834C14.2681 47.3128 14.3448 47.1894 14.4119 47.1293C14.8822 46.7082 15.0097 46.1214 14.767 45.4495ZM30.0869 5.58877C29.5954 5.87575 29.0974 6.07566 28.5547 6.14323C28.402 6.16224 28.4023 6.28178 28.3752 6.38292C28.2501 6.85099 28.0546 7.28388 27.7029 7.62492C27.2029 8.10972 26.599 8.48957 26.2255 9.10531C26.3902 8.66121 26.6232 8.26795 26.9836 7.95918C27.4707 7.54182 27.8536 7.04493 28.1245 6.46227C28.2704 6.14843 28.2708 6.15565 27.9391 6.09604C26.8682 5.90358 25.9442 5.44104 25.2221 4.60851C25.1015 4.46943 25.0984 4.39981 25.3056 4.38279C25.5293 4.36441 25.7287 4.26577 25.9203 4.15646C26.5325 3.80721 27.1167 3.40816 27.7643 3.1221C28.5077 2.7937 29.2655 2.80107 30.0394 3.03492C28.4426 3.10667 27.148 3.98895 25.7167 4.59475C26.4004 5.06414 27.0493 5.52371 27.8118 5.78735C28.3251 5.96481 28.8353 5.95755 29.3478 5.78253C29.7158 5.65688 30.0581 5.4862 30.3871 5.16199C30.2871 5.63775 30.1953 6.02959 30.1232 6.42499C29.8874 7.71755 29.8019 9.00846 30.2238 10.2835C30.3509 10.6677 30.5054 11.041 30.7734 11.3598C30.7016 10.6046 30.7219 9.86293 30.9235 9.10907C30.9956 9.22231 30.9437 9.30966 30.9342 9.39606C30.8029 10.598 31.0027 11.6858 31.9131 12.5799C32.3948 13.053 32.8569 13.5543 33.2171 14.135C33.5206 14.6242 33.7219 15.4509 33.648 15.9089C33.3478 14.62 33.0689 14.1764 32.0409 13.3529C31.9694 13.2956 31.8943 13.2425 31.8253 13.1823C31.3778 12.7919 30.8549 12.4781 30.518 11.9739C29.5837 10.5756 29.2978 9.05409 29.6827 7.41099C29.7202 7.25078 29.8028 7.09736 29.7916 6.89996C29.5195 7.25224 29.2663 7.57998 29.0132 7.90773C29.0009 7.89874 28.9886 7.88975 28.9763 7.88075C29.3422 7.12561 29.7081 6.37049 30.0869 5.58877ZM36.6762 25.0066C35.7383 24.6644 34.9382 24.2499 34.4649 23.3863C33.8404 22.247 33.4428 21.0142 32.9768 19.8081C33.2985 20.2547 33.5729 20.7292 33.8437 21.206C34.3632 22.1206 34.8185 23.0775 35.5506 23.8542C35.9018 24.2268 36.2658 24.5872 36.6762 25.0066ZM34.2485 9.85075C33.7573 11.6709 33.9584 13.3693 35.1281 14.9022C33.4716 13.4281 33.3327 11.3965 34.2485 9.85075ZM27.7065 4.08993C28.252 3.98066 28.7756 4.04708 29.2839 4.25919C29.5429 4.36727 29.8012 4.51338 30.0653 4.25062C30.147 4.16932 30.197 4.2458 30.1915 4.33545C30.1754 4.59511 30.1043 4.83687 29.9475 5.05011C29.8828 5.13811 29.8152 5.1333 29.7394 5.0728C29.138 4.59349 28.4629 4.2682 27.7065 4.08993ZM33.8179 3.21656C33.6102 3.26746 33.4011 3.27191 33.1912 3.2337C33.0823 3.2139 33.0366 3.18205 33.0987 3.0521C33.3671 2.48974 33.4265 2.46012 33.9976 2.67534C34.0062 2.67857 34.0145 2.68241 34.0231 2.68563C34.2618 2.77578 34.284 2.8808 34.1072 3.06952C34.0278 3.15436 33.9244 3.18754 33.8179 3.21656ZM29.2213 15.0845C28.8813 14.1188 28.7735 13.156 29.262 12.2008C29.0554 13.1596 29.0229 14.1206 29.2213 15.0845ZM36.7364 1.87196C36.8824 1.83646 36.9796 1.8129 37.0768 1.78917C37.419 1.70565 37.5218 1.75272 37.6807 2.06865C37.7 2.10715 37.742 2.1472 37.7086 2.19294C37.6775 2.23561 37.6258 2.22288 37.5826 2.21303C37.2991 2.14836 37.0208 2.07008 36.7364 1.87196ZM27.7926 12.3187C27.6247 11.5282 27.7046 10.761 28.0467 10.0224C27.8484 10.775 27.7748 11.5403 27.7926 12.3187Z" fill="#E45809"/>
<path d="M20.4027 32.3259C20.0533 32.6168 19.7329 32.8878 19.408 33.1534C18.6161 33.8007 17.7146 34.1629 16.6855 34.1723C16.5663 34.1734 16.5462 34.241 16.5175 34.3121C16.3595 34.7044 16.1623 35.0765 15.9374 35.4335C15.8721 35.5371 15.8732 35.6437 15.8883 35.751C15.9949 36.5072 15.7612 37.1588 15.2973 37.747C15.156 37.9262 15.0219 38.1151 14.9134 38.3153C14.6699 38.7643 14.7358 39.1821 15.0931 39.5463C15.2018 39.6571 15.3203 39.7601 15.4437 39.8544C16.9108 40.9762 18.1933 42.3014 19.5347 43.5618C19.9894 43.989 20.4832 44.3702 20.9901 44.7329C21.4639 45.0721 22.1513 44.9432 22.4881 44.4634C22.6947 44.1692 22.6724 43.7873 22.433 43.4956C22.209 43.2226 21.8993 43.0872 21.5751 42.9685C21.8318 42.7484 22.2129 42.8277 22.5551 43.1643C23.036 43.6372 23.0505 44.1614 22.5974 44.6897C23.0785 44.8226 23.6757 44.5163 23.8262 44.0508C23.9433 43.6889 23.833 43.3848 23.5609 43.1319C23.3026 42.8918 22.9622 42.8378 22.6288 42.7446C23.1008 42.3417 24.1142 42.7907 24.1582 43.6057C24.1612 43.6604 24.1723 43.7223 24.1524 43.7694C23.9891 44.1569 24.3071 44.3089 24.512 44.5152C24.625 44.629 24.7087 44.5427 24.7914 44.466C25.2223 44.0668 25.2349 43.2968 24.8141 42.8799C24.7195 42.7862 24.6133 42.7042 24.5028 42.6084C24.9434 42.5286 25.2381 42.6683 25.7975 43.2242C25.7997 42.898 25.6722 42.6586 25.4929 42.442C25.3081 42.2187 25.0689 42.0665 24.8057 41.9513C24.5462 41.8377 24.2667 41.789 23.9814 41.7183C24.4101 41.386 25.0035 41.5175 25.7206 42.1175C25.5693 41.6919 25.3333 41.4061 25.0042 41.1971C24.1187 40.6346 23.1919 40.6847 22.3059 41.1367C21.827 41.381 21.4602 41.3229 21.0378 41.0725C20.3878 40.6871 19.8267 40.217 19.4445 39.5567C19.1379 39.027 19.1302 38.4775 19.363 37.919C19.53 37.5184 19.7767 37.1631 20.02 36.8088C20.9132 35.5081 20.9782 34.0252 20.4027 32.3259Z" fill="#E45809"/>
<path d="M64.0062 0.371094V20.8221H58.3383L50.567 11.5315V20.8221H43.8473V0.371094H49.5152L57.2866 9.6617V0.371094H64.0062Z" fill="white"/>
<path d="M67.3283 0.371094H74.2233V20.8221H67.3283V0.371094Z" fill="white"/>
<path d="M97.7013 0.371094V20.8221H92.0334L84.2621 11.5315V20.8221H77.5424V0.371094H83.2103L90.9817 9.6617V0.371094H97.7013Z" fill="white"/>
<path d="M118.027 15.6217V20.8221H101.023V0.371094H117.647V5.5715H107.801V7.96719H116.449V12.9339H107.801V15.6217H118.027Z" fill="white"/>
<path d="M54.4234 47.6799C52.2615 47.6799 50.3138 47.232 48.5803 46.336C46.8468 45.4206 45.4834 44.1546 44.4901 42.538C43.5162 40.9019 43.0293 39.0516 43.0293 36.987C43.0293 34.9224 43.5162 33.0818 44.4901 31.4652C45.4834 29.8291 46.8468 28.5631 48.5803 27.6672C50.3138 26.7517 52.2615 26.294 54.4234 26.294C56.4101 26.294 58.1825 26.6446 59.7407 27.3458C61.2989 28.047 62.5844 29.0598 63.5972 30.3842L59.244 34.2699C57.978 32.6728 56.488 31.8742 54.774 31.8742C53.3327 31.8742 52.1738 32.3417 51.2973 33.2766C50.4209 34.192 49.9826 35.4288 49.9826 36.987C49.9826 38.5451 50.4209 39.7917 51.2973 40.7266C52.1738 41.642 53.3327 42.0997 54.774 42.0997C56.488 42.0997 57.978 41.3012 59.244 39.704L63.5972 43.5897C62.5844 44.9142 61.2989 45.927 59.7407 46.6282C58.1825 47.3293 56.4101 47.6799 54.4234 47.6799Z" fill="white"/>
<path d="M79.2385 43.6482H71.4672L70.094 47.2125H63.0822L72.0223 26.7615H78.8003L87.7403 47.2125H80.6117L79.2385 43.6482ZM77.3395 38.6815L75.3529 33.5395L73.3662 38.6815H77.3395Z" fill="white"/>
<path d="M96.466 47.6799C94.7715 47.6799 93.1159 47.4949 91.4993 47.1248C89.9022 46.7353 88.5875 46.2191 87.5552 45.5764L89.7756 40.5513C90.7495 41.1161 91.8402 41.5738 93.0478 41.9244C94.2554 42.2555 95.4142 42.4211 96.5244 42.4211C97.4788 42.4211 98.1605 42.3335 98.5695 42.1582C98.9786 41.9634 99.1831 41.681 99.1831 41.3109C99.1831 40.8824 98.9104 40.561 98.365 40.3468C97.8392 40.1325 96.9627 39.8988 95.7356 39.6456C94.158 39.3145 92.8433 38.9639 91.7915 38.5938C90.7397 38.2043 89.8243 37.581 89.0452 36.724C88.2661 35.8476 87.8766 34.6692 87.8766 33.1889C87.8766 31.9034 88.2369 30.7348 88.9576 29.683C89.6782 28.6313 90.7495 27.8035 92.1713 27.1997C93.6126 26.5959 95.3558 26.294 97.4009 26.294C98.8033 26.294 100.176 26.4498 101.52 26.7615C102.884 27.0536 104.082 27.4919 105.114 28.0762L103.04 33.0721C101.033 32.0593 99.1344 31.5528 97.3425 31.5528C95.5701 31.5528 94.6839 31.9813 94.6839 32.8383C94.6839 33.2474 94.9468 33.559 95.4727 33.7732C95.9986 33.968 96.8653 34.1823 98.0729 34.416C99.6311 34.7081 100.946 35.049 102.017 35.4385C103.088 35.8086 104.013 36.4221 104.792 37.2791C105.591 38.1361 105.99 39.3048 105.99 40.785C105.99 42.0705 105.63 43.2391 104.909 44.2909C104.189 45.3232 103.108 46.151 101.666 46.7742C100.245 47.378 98.5111 47.6799 96.466 47.6799Z" fill="white"/>
<path d="M108.042 26.7615H114.937V47.2125H108.042V26.7615Z" fill="white"/>
<path d="M138.415 26.7615V47.2125H132.747L124.976 37.9219V47.2125H118.256V26.7615H123.924L131.695 36.0521V26.7615H138.415Z" fill="white"/>
<path d="M152.459 47.6799C150.258 47.6799 148.281 47.2222 146.529 46.3068C144.776 45.3914 143.402 44.1254 142.409 42.5087C141.416 40.8727 140.919 39.0321 140.919 36.987C140.919 34.9419 141.416 33.111 142.409 31.4944C143.402 29.8583 144.776 28.5826 146.529 27.6672C148.281 26.7517 150.258 26.294 152.459 26.294C154.66 26.294 156.637 26.7517 158.39 27.6672C160.143 28.5826 161.516 29.8583 162.51 31.4944C163.503 33.111 164 34.9419 164 36.987C164 39.0321 163.503 40.8727 162.51 42.5087C161.516 44.1254 160.143 45.3914 158.39 46.3068C156.637 47.2222 154.66 47.6799 152.459 47.6799ZM152.459 42.0997C153.316 42.0997 154.086 41.8952 154.767 41.4862C155.469 41.0577 156.024 40.4636 156.433 39.704C156.842 38.9249 157.046 38.0193 157.046 36.987C157.046 35.9547 156.842 35.0587 156.433 34.2991C156.024 33.52 155.469 32.926 154.767 32.517C154.086 32.0885 153.316 31.8742 152.459 31.8742C151.602 31.8742 150.823 32.0885 150.122 32.517C149.44 32.926 148.895 33.52 148.486 34.2991C148.077 35.0587 147.872 35.9547 147.872 36.987C147.872 38.0193 148.077 38.9249 148.486 39.704C148.895 40.4636 149.44 41.0577 150.122 41.4862C150.823 41.8952 151.602 42.0997 152.459 42.0997Z" fill="white"/>
<path d="M42.9018 27.9024C42.6466 27.863 42.3898 27.8798 42.134 27.8973L41.4346 25.2349C42.4921 25.2217 43.5226 25.2782 44.4666 25.8279C45.0526 26.169 45.6492 26.4918 46.2377 26.8284C46.3748 26.9068 46.5144 26.9654 46.6683 27.0007C47.6256 27.2199 48.3392 28.0259 48.441 29.0042C48.559 30.1389 48.1036 31.0369 47.283 31.7811C47.2647 31.7977 47.238 31.8044 47.2224 31.7719C48.125 30.3736 48.3463 28.9368 47.7097 28.4308C47.9355 29.6573 47.9582 30.8215 46.7705 31.5877C46.2508 31.9229 45.666 32.0337 45.0131 31.8256C45.2262 31.6729 45.4551 31.632 45.6007 31.4298C45.419 31.376 45.2496 31.3391 45.0905 31.2761C44.4633 31.028 44.2772 30.6109 44.5345 29.9953C44.6105 29.8135 44.5124 29.7921 44.3926 29.7591C43.6811 29.5633 43.3151 29.104 43.3194 28.3591C43.321 28.0802 43.1607 27.9423 42.9018 27.9024Z" fill="#E45809"/>
</svg>
