<svg width="179" height="34" viewBox="0 0 179 34" fill="none" xmlns="http://www.w3.org/2000/svg">
<path d="M0 19.9562L3.72426 1.27065H12.6817C15.2716 1.27065 17.2729 1.82715 18.6855 2.94014C20.1196 4.05314 20.8366 5.60491 20.8366 7.59547C20.8366 9.15794 20.4299 10.5385 19.6166 11.7371C18.8246 12.9143 17.6902 13.8454 16.2134 14.5303C14.7579 15.1938 13.0349 15.5256 11.0444 15.5256H4.94427L8.86117 12.5718L7.38431 19.9562H0ZM12.7238 29.7437L7.38431 13.1497H14.9612L19.6166 27.485L12.7238 29.7437ZM8.70064 13.3745L6.10008 10.2281H11.3012C11.9433 10.2281 12.4463 10.0462 12.8102 9.68233C13.174 9.31847 13.356 8.85829 13.356 8.30179C13.356 7.74529 13.174 7.33862 12.8102 7.08177C12.4463 6.82493 11.9754 6.69651 11.3975 6.69651H6.7743L10.6591 3.55015L8.70064 13.3745Z" fill="#FF4401"/>
<path d="M31.9173 20.4377C29.9268 20.4377 28.193 20.0846 26.7162 19.3782C25.2607 18.6505 24.1263 17.6445 23.313 16.3603C22.4996 15.0761 22.093 13.6099 22.093 11.9618C22.093 10.2923 22.3926 8.77267 22.9919 7.40283C23.5912 6.03299 24.4367 4.85578 25.5283 3.87121C26.6199 2.88663 27.9041 2.1268 29.381 1.5917C30.8578 1.05661 32.4631 0.789062 34.1968 0.789062C36.1874 0.789062 37.9211 1.15293 39.3979 1.88065C40.8748 2.58698 42.0092 3.58226 42.8011 4.86648C43.6145 6.12931 44.0211 7.59547 44.0211 9.26496C44.0211 10.9345 43.7215 12.4541 43.1222 13.824C42.5229 15.1938 41.6774 16.371 40.5858 17.3556C39.4942 18.3402 38.21 19.1 36.7332 19.6351C35.2777 20.1702 33.6724 20.4377 31.9173 20.4377ZM32.5594 14.6587C33.2015 14.6587 33.7687 14.5303 34.261 14.2734C34.7747 13.9952 35.2028 13.6313 35.5452 13.1819C35.8877 12.711 36.1445 12.1866 36.3158 11.6087C36.487 11.0094 36.5726 10.378 36.5726 9.71444C36.5726 8.77267 36.3051 8.01284 35.77 7.43494C35.2349 6.85703 34.5072 6.56808 33.5868 6.56808C32.9447 6.56808 32.3668 6.70721 31.8531 6.98546C31.3608 7.2423 30.9434 7.60617 30.601 8.07705C30.2585 8.52653 29.991 9.05092 29.7983 9.65023C29.6271 10.2495 29.5415 10.8809 29.5415 11.5445C29.5415 12.4648 29.809 13.214 30.3441 13.7919C30.9006 14.3698 31.6391 14.6587 32.5594 14.6587Z" fill="#FF4401"/>
<path d="M55.3725 20.4377C53.3819 20.4377 51.6375 20.0846 50.1393 19.3782C48.6624 18.6505 47.5066 17.6552 46.6719 16.3924C45.8371 15.1082 45.4197 13.6313 45.4197 11.9618C45.4197 10.2923 45.7194 8.78338 46.3187 7.43494C46.918 6.06509 47.7635 4.88789 48.855 3.90331C49.9466 2.89733 51.2202 2.1268 52.6756 1.5917C54.1525 1.05661 55.7685 0.789062 57.5236 0.789062C59.4285 0.789062 61.1087 1.13152 62.5642 1.81644C64.041 2.50136 65.1219 3.47524 65.8068 4.73806L60.5094 8.75127C60.1455 8.06635 59.6747 7.53125 59.0968 7.14599C58.5403 6.76072 57.866 6.56808 57.0741 6.56808C56.4748 6.56808 55.9183 6.6858 55.4046 6.92125C54.8909 7.15669 54.4414 7.49915 54.0562 7.94863C53.6923 8.3767 53.4034 8.8904 53.1893 9.4897C52.9753 10.089 52.8683 10.7632 52.8683 11.5124C52.8683 12.4541 53.1679 13.214 53.7672 13.7919C54.3879 14.3698 55.1692 14.6587 56.1109 14.6587C56.753 14.6587 57.3952 14.4982 58.0373 14.1771C58.6794 13.8561 59.3108 13.2996 59.9315 12.5076L64.2979 16.5208C63.0779 18.0191 61.7401 19.0465 60.2847 19.603C58.8292 20.1595 57.1918 20.4377 55.3725 20.4377Z" fill="#FF4401"/>
<path d="M72.6609 16.264L73.7525 8.26968L81.0405 1.27065H89.4843L79.8205 10.0676L74.812 14.1771L72.6609 16.264ZM65.3087 19.9562L69.033 1.27065H76.2888L72.5646 19.9562H65.3087ZM77.8941 19.9562L73.7204 13.1176L79.1784 8.30179L86.1132 19.9562H77.8941Z" fill="#FF4401"/>
<path d="M90.1279 19.9562L91.8616 11.5124L92.6642 15.7824L86.8531 1.27065H94.2695L97.9938 10.7418H93.3064L101.012 1.27065H108.396L96.7417 15.7824L99.2459 11.5124L97.5122 19.9562H90.1279Z" fill="#FF4401"/>
<path d="M113.021 20.4377C111.865 20.4377 110.752 20.3521 109.682 20.1809C108.633 20.0311 107.67 19.8277 106.792 19.5709C105.915 19.2926 105.155 18.9823 104.513 18.6398L107.306 13.3745C108.462 13.9524 109.575 14.3805 110.645 14.6587C111.715 14.937 112.764 15.0761 113.791 15.0761C114.476 15.0761 114.947 15.0226 115.204 14.9156C115.482 14.7871 115.621 14.6266 115.621 14.434C115.621 14.1771 115.407 13.9738 114.979 13.824C114.551 13.6527 114.005 13.5029 113.342 13.3745C112.678 13.2247 111.961 13.0427 111.191 12.8287C110.442 12.6147 109.735 12.3257 109.072 11.9618C108.408 11.5766 107.862 11.0736 107.434 10.4529C107.006 9.83216 106.792 9.04022 106.792 8.07705C106.792 6.62159 107.188 5.34807 107.98 4.25647C108.772 3.16488 109.917 2.31943 111.415 1.72013C112.914 1.09942 114.722 0.789062 116.841 0.789062C118.318 0.789062 119.688 0.928187 120.951 1.20643C122.214 1.48468 123.305 1.88065 124.226 2.39434L121.593 7.59547C120.822 7.12458 119.988 6.77142 119.089 6.53598C118.19 6.30054 117.28 6.18282 116.36 6.18282C115.846 6.18282 115.429 6.22562 115.108 6.31124C114.787 6.39685 114.551 6.50387 114.401 6.63229C114.251 6.73931 114.177 6.85703 114.177 6.98546C114.177 7.2423 114.391 7.44564 114.819 7.59547C115.247 7.72389 115.793 7.85231 116.456 7.98073C117.141 8.10916 117.858 8.28039 118.607 8.49442C119.356 8.68706 120.063 8.96531 120.726 9.32917C121.411 9.69304 121.968 10.1853 122.396 10.806C122.824 11.4267 123.038 12.2294 123.038 13.214C123.038 14.6266 122.631 15.8787 121.818 16.9703C121.026 18.0619 119.881 18.9181 118.382 19.5388C116.906 20.1381 115.118 20.4377 113.021 20.4377Z" fill="white"/>
<path d="M123.751 19.9562L127.475 1.27065H136.336C138.969 1.27065 141.003 1.83785 142.437 2.97225C143.871 4.08524 144.588 5.64772 144.588 7.65968C144.588 9.22215 144.181 10.6027 143.368 11.8013C142.576 12.9999 141.441 13.9417 139.964 14.6266C138.509 15.2901 136.786 15.6219 134.795 15.6219H128.695L132.612 12.5718L131.135 19.9562H123.751ZM132.452 13.3745L129.851 10.2281H135.116C135.759 10.2281 136.251 10.0462 136.593 9.68233C136.936 9.31847 137.107 8.85829 137.107 8.30179C137.107 7.74529 136.936 7.33862 136.593 7.08177C136.251 6.82493 135.791 6.69651 135.213 6.69651H130.525L134.41 3.55015L132.452 13.3745Z" fill="white"/>
<path d="M144.726 19.9562L148.451 1.27065H155.835L152.111 19.9562H144.726Z" fill="white"/>
<path d="M155.512 19.9562L159.236 1.27065H165.304L171.918 11.6408L169.349 11.6729L171.436 1.27065H178.628L174.904 19.9562H168.836L162.222 9.58602L164.79 9.52181L162.704 19.9562H155.512Z" fill="white"/>
<path d="M43.5914 21.6133L16.6381 22.8179L10.7656 23.2696L12.7231 29.7444L29.5878 28.841L26.1245 33.2077L61.3596 27.9375L56.8422 32.3043L174.744 22.8179L70.8459 25.98L77.4713 21.6133L41.3328 24.3237L43.5914 21.6133Z" fill="#FF4401"/>
</svg>
